<?xml version="1.0" encoding="UTF-8"?>
<!DOCTYPE svg PUBLIC "-//W3C//DTD SVG 1.1//EN" "http://www.w3.org/Graphics/SVG/1.1/DTD/svg11.dtd">
<!-- Creator: CorelDRAW 2020 (64-Bit) -->
<svg xmlns="http://www.w3.org/2000/svg" xml:space="preserve" width="1.79167in" height="1.79109in" version="1.1" style="shape-rendering:geometricPrecision; text-rendering:geometricPrecision; image-rendering:optimizeQuality; fill-rule:evenodd; clip-rule:evenodd"
viewBox="0 0 74.26 74.24"
 xmlns:xlink="http://www.w3.org/1999/xlink"
 xmlns:xodm="http://www.corel.com/coreldraw/odm/2003">
 <defs>
  <style type="text/css">
   <![CDATA[
    .fil0 {fill:#FEFEFE}
    .fil1 {fill:#3DD9EB}
    .fil6 {fill:#615DFF}
    .fil3 {fill:#3DD9EB;fill-rule:nonzero}
    .fil5 {fill:#514FBD;fill-rule:nonzero}
    .fil4 {fill:#6068B5;fill-rule:nonzero}
    .fil2 {fill:#615DFF;fill-rule:nonzero}
   ]]>
  </style>
 </defs>
 <g id="Layer_x0020_1">
  <metadata id="CorelCorpID_0Corel-Layer"/>
  <rect class="fil0" x="-0" y="0" width="74.26" height="74.24" rx="4.49" ry="3.44"/>
  <g id="_2458804608720">
   <path class="fil1" d="M54.24 28.59l1.05 -2.33c0.22,-0.29 0.65,-1 0.76,-1.27 0.25,-0.12 0.52,-0.53 0.65,-0.77 0.36,-0.18 0.66,-0.51 1.07,-0.82 1.04,-0.77 2.64,-1.32 3.8,-1.87 1.14,-0.54 0.85,-1.59 -0.2,-2.08 -0.4,-0.18 -2.36,-1.08 -2.62,-1.09l-1.3 -0.91c-0.17,-0.25 -0.17,-0.21 -0.4,-0.42 -0.16,-0.14 -0.24,-0.22 -0.39,-0.38 -0.16,-0.18 -0.56,-0.69 -0.69,-0.79 -0.06,-0.13 -0.93,-1.75 -0.99,-1.82 -0.09,-0.39 -0.62,-1.8 -0.86,-2.05 -0.26,-0.84 -1.33,-0.77 -1.74,-0.04 -0.18,0.31 -0.8,1.84 -0.85,2.14 -0.23,0.26 -0.67,1.25 -0.94,1.65 -0.4,0.59 -0.84,0.96 -1.18,1.43l-2.17 1.42c-0.01,-0.02 -0.04,0.03 -0.06,0.05 -0.4,0.01 -1.13,0.41 -1.46,0.59 -0.61,0.2 -1.37,0.46 -1.48,1.14 -0.14,0.9 0.62,1.16 1.25,1.39 0.37,0.19 1.04,0.53 1.43,0.57l1.8 0.99c0.24,0.28 0.55,0.45 0.83,0.71 1.85,1.73 1.97,3.35 2.84,4.86 0.46,0.8 1.52,0.72 1.84,-0.31z"/>
   <path id="XMLID_4_" class="fil2" d="M52 32.13l1.26 0c1.26,0 2.28,1.02 2.28,2.28l0 7.75c0,1.26 -1.02,2.28 -2.28,2.28l-1.26 0c-1.26,0 -2.28,-1.02 -2.28,-2.28l0 -7.74c-0,-1.26 1.02,-2.28 2.27,-2.28z"/>
   <path id="XMLID_5_" class="fil3" d="M43.61 24.03l1.26 0c1.26,0 2.28,1.02 2.28,2.28l0 22.07c0,1.26 -1.02,2.28 -2.28,2.28l-1.26 0c-1.26,0 -2.28,-1.02 -2.28,-2.28l0 -22.06c-0,-1.26 1.02,-2.28 2.28,-2.28z"/>
   <path id="XMLID_6_" class="fil4" d="M35.75 10.64l1.26 0c1.26,0 2.28,1.02 2.28,2.28l0 48.4c0,1.26 -1.02,2.28 -2.28,2.28l-1.26 0c-1.26,0 -2.28,-1.02 -2.28,-2.28l0 -48.4c-0,-1.26 1.02,-2.28 2.28,-2.28z"/>
   <path id="XMLID_7_" class="fil5" d="M28.68 21.49l1.26 0c1.26,0 2.28,1.02 2.28,2.28l0 26.97c0,1.26 -1.02,2.28 -2.28,2.28l-1.26 0c-1.26,0 -2.28,-1.02 -2.28,-2.28l0 -26.97c-0,-1.26 1.02,-2.28 2.28,-2.28z"/>
   <path id="XMLID_8_" class="fil2" d="M21.37 29.26l1.26 0c1.26,0 2.28,1.02 2.28,2.28l0 13.18c0,1.26 -1.02,2.28 -2.28,2.28l-1.26 -0c-1.26,0 -2.28,-1.02 -2.28,-2.28l0 -13.18c0,-1.26 1.02,-2.28 2.28,-2.28z"/>
   <ellipse class="fil1" cx="12.65" cy="38.05" rx="3.1" ry="3.09"/>
   <ellipse class="fil6" cx="61.61" cy="38.22" rx="3.1" ry="3.09"/>
  </g>
 </g>
</svg>
